<svg width="22" height="22" viewBox="0 0 22 22" fill="none" xmlns="http://www.w3.org/2000/svg">
<path d="M1.11406 1.11454C2.15545 0.0731465 3.84389 0.0731465 4.88529 1.11454L10.9997 7.22893L17.1141 1.11454C18.1555 0.0731465 19.8439 0.0731465 20.8853 1.11454C21.9267 2.15594 21.9267 3.84438 20.8853 4.88578L14.7709 11.0002L20.8853 17.1145C21.9267 18.1559 21.9267 19.8444 20.8853 20.8858C19.8439 21.9272 18.1555 21.9272 17.1141 20.8858L10.9997 14.7714L4.88529 20.8858C3.84389 21.9272 2.15545 21.9272 1.11406 20.8858C0.0726582 19.8444 0.0726582 18.1559 1.11406 17.1145L7.22844 11.0002L1.11406 4.88578C0.0726582 3.84438 0.0726582 2.15594 1.11406 1.11454Z" fill="black"/>
</svg>
