<svg width="25" height="25" viewBox="0 0 25 25" fill="none" xmlns="http://www.w3.org/2000/svg">
<g clip-path="url(#clip0_375_1203)">
<path d="M25.0002 12.5765C25.0002 5.62963 19.4033 -0.00161743 12.5002 -0.00161743C5.59394 -5.49316e-05 -0.00292969 5.62963 -0.00292969 12.5781C-0.00292969 18.8546 4.56895 24.0578 10.5439 25.0015V16.2124H7.37207V12.5781H10.5471V9.80463C10.5471 6.65307 12.4143 4.91245 15.2689 4.91245C16.6377 4.91245 18.0674 5.15776 18.0674 5.15776V8.25151H16.4908C14.9393 8.25151 14.4549 9.22182 14.4549 10.2171V12.5765H17.9205L17.3674 16.2109H14.4533V24.9999C20.4283 24.0562 25.0002 18.8531 25.0002 12.5765Z" fill="#FFFCF7"/>
</g>
<defs>
<clipPath id="clip0_375_1203">
<rect width="25" height="25" fill="white"/>
</clipPath>
</defs>
</svg>
