<svg width="25" height="25" viewBox="0 0 25 25" fill="none" xmlns="http://www.w3.org/2000/svg">
<path d="M7.85313 23.4375C17.2875 23.4375 22.4484 15.6203 22.4484 8.85312C22.4484 8.63437 22.4484 8.4125 22.4391 8.19375C23.4438 7.46638 24.311 6.56586 25 5.53437C24.0614 5.9482 23.0668 6.22095 22.0484 6.34375C23.1211 5.70256 23.9246 4.6937 24.3094 3.50469C23.3015 4.10176 22.1985 4.5209 21.0484 4.74375C20.2753 3.92035 19.2522 3.37487 18.1376 3.19181C17.0231 3.00875 15.8793 3.19831 14.8833 3.73115C13.8874 4.26399 13.095 5.11036 12.6288 6.13916C12.1626 7.16796 12.0487 8.32177 12.3047 9.42188C10.2652 9.31961 8.27003 8.78979 6.4485 7.86679C4.62698 6.94378 3.01982 5.64819 1.73125 4.06406C1.07709 5.19388 0.877459 6.53031 1.17288 7.80198C1.46831 9.07364 2.23665 10.1852 3.32187 10.9109C2.50866 10.8833 1.71331 10.6649 1 10.2734V10.3438C1.0014 11.5273 1.41142 12.6741 2.16074 13.5902C2.91006 14.5064 3.95273 15.1357 5.1125 15.3719C4.67229 15.4931 4.21755 15.5536 3.76094 15.5516C3.43904 15.5525 3.11778 15.5227 2.80156 15.4625C3.12935 16.4813 3.76761 17.3721 4.62695 18.0101C5.48628 18.6481 6.52365 19.0013 7.59375 19.0203C5.77587 20.4481 3.53031 21.2225 1.21875 21.2188C0.811439 21.2205 0.404411 21.197 0 21.1484C2.34612 22.6442 5.07078 23.4384 7.85313 23.4375Z" fill="#FFFCF7"/>
</svg>
